<?xml version="1.0" standalone="no"?>
<!DOCTYPE svg PUBLIC "-//W3C//DTD SVG 20010904//EN"
 "http://www.w3.org/TR/2001/REC-SVG-20010904/DTD/svg10.dtd">
<svg version="1.0" xmlns="http://www.w3.org/2000/svg"
 width="500.000000pt" height="500.000000pt" viewBox="0 0 500.000000 500.000000"
 preserveAspectRatio="xMidYMid meet">

<g transform="translate(0.000000,500.000000) scale(0.100000,-0.100000)"
fill="#000000" stroke="none">
<path d="M2432 3600 c-79 -49 -77 -190 4 -220 l24 -10 0 -283 0 -284 39 -11
c21 -7 41 -12 45 -12 3 0 6 132 6 294 0 249 2 295 15 306 8 7 15 9 15 5 0 -4
7 -2 15 5 8 7 13 16 10 20 -3 5 0 10 7 12 9 3 9 6 0 12 -7 4 -12 2 -12 -4 0
-6 -5 -8 -12 -4 -7 5 -9 2 -5 -9 4 -11 2 -14 -9 -10 -17 6 -19 23 -3 23 8 0 8
4 0 14 -9 11 -8 15 4 20 9 3 13 10 10 16 -3 6 1 17 9 26 15 14 16 13 16 -10 0
-17 5 -26 16 -26 22 0 9 59 -18 83 -11 9 -17 17 -13 17 3 0 -7 11 -23 25 -37
31 -94 33 -140 5z m128 -15 c-1 -4 11 -16 27 -27 15 -11 20 -17 10 -14 -15 5
-17 2 -12 -14 4 -13 1 -22 -10 -26 -13 -5 -13 -9 -3 -22 11 -13 11 -14 -2 -7
-8 5 -24 8 -35 7 -16 -2 -14 1 8 15 15 10 27 21 27 25 0 9 -29 -1 -47 -15 -18
-13 -16 -4 8 40 l21 38 -26 -30 c-14 -16 -28 -26 -31 -23 -4 3 8 20 26 37 29
29 43 34 39 16z"/>
<path d="M2035 3572 c-11 -2 -67 -15 -125 -29 -139 -33 -291 -40 -390 -19 -41
9 -81 16 -87 16 -45 0 43 -100 115 -131 113 -49 252 -61 390 -35 39 7 72 12
72 10 0 -24 -207 -69 -283 -61 -62 6 -58 -10 13 -45 105 -53 242 -54 351 -3
29 13 55 22 58 20 15 -16 -112 -95 -152 -95 -33 0 -16 -19 26 -31 50 -14 157
-6 198 15 25 12 35 13 62 2 18 -7 53 -16 80 -19 l47 -7 0 50 c0 37 -4 50 -15
50 -29 0 -81 32 -102 63 -12 18 -28 59 -36 93 -8 33 -22 73 -32 87 -28 44
-132 82 -190 69z"/>
<path d="M2880 3564 c-78 -21 -118 -63 -130 -136 -15 -95 -47 -139 -117 -163
-36 -12 -38 -15 -41 -60 l-3 -47 53 7 c29 4 68 13 86 21 30 12 37 12 65 -3 23
-13 57 -17 124 -18 102 0 139 15 87 36 -91 37 -157 80 -143 94 3 2 29 -7 58
-21 84 -38 171 -49 259 -30 74 15 152 51 159 73 3 8 -11 10 -49 6 -62 -6 -215
19 -255 42 l-28 16 40 -6 c109 -14 241 -17 293 -6 108 23 203 75 235 131 22
37 10 45 -45 28 -26 -8 -97 -12 -183 -12 -116 1 -158 5 -245 27 -150 37 -159
38 -220 21z"/>
<path d="M2593 3463 c-22 -8 -14 -20 12 -20 14 0 25 4 25 9 0 5 -4 7 -9 4 -5
-4 -11 -2 -13 2 -1 5 -9 7 -15 5z"/>
<path d="M2224 3082 c-80 -27 -121 -57 -139 -106 -20 -52 -9 -108 30 -155 34
-40 122 -94 141 -87 8 3 13 2 10 -2 -6 -11 73 -46 249 -111 198 -74 225 -93
225 -161 0 -46 -15 -67 -67 -94 l-47 -23 44 -22 44 -21 50 29 c51 28 64 51 36
58 -13 4 -13 3 0 -6 9 -7 10 -11 3 -11 -17 0 -23 14 -13 30 5 9 4 20 -3 30
-10 13 -10 13 4 3 12 -10 18 -10 27 -1 7 7 12 8 12 4 0 -5 -8 -15 -17 -23 -17
-14 -17 -14 1 -9 10 4 25 1 32 -5 16 -13 19 2 3 18 -8 8 -7 13 2 18 8 6 10 4
4 -4 -5 -9 -2 -12 11 -9 23 4 38 67 24 104 -27 70 -196 165 -400 223 -25 7
-55 18 -67 23 -11 6 -26 7 -32 4 -6 -4 -11 -2 -11 4 0 7 -6 10 -12 8 -7 -3
-17 -1 -23 4 -5 5 -38 27 -73 50 -35 22 -68 51 -74 64 -15 33 -2 72 32 89 38
20 47 19 53 -4 2 -10 16 -27 30 -36 22 -14 30 -15 54 -3 61 29 69 104 13 133
-37 19 -91 18 -156 -3z m132 -311 c5 1 14 0 19 -1 6 -1 17 -3 25 -4 8 0 16
-11 18 -23 3 -17 -3 -24 -22 -29 -14 -3 -26 -10 -26 -15 0 -5 -12 -2 -27 8
-16 9 -29 18 -31 19 -2 1 -5 14 -8 30 -3 22 -2 25 6 14 9 -14 15 -7 11 14 -1
5 4 4 12 -3 8 -6 19 -11 23 -10z"/>
<path d="M2347 2729 c7 -7 15 -10 18 -7 3 3 -2 9 -12 12 -14 6 -15 5 -6 -5z"/>
<path d="M2619 3071 c-16 -16 -29 -36 -29 -45 0 -83 112 -115 140 -40 8 20 14
24 33 18 53 -16 75 -60 52 -105 -17 -33 -64 -64 -145 -98 -78 -33 -80 -38 -25
-62 l50 -22 82 42 c45 23 95 58 112 76 40 45 50 111 25 154 -34 57 -141 111
-220 111 -37 0 -51 -5 -75 -29z m281 -181 c6 -11 8 -20 6 -20 -3 0 -10 9 -16
20 -6 11 -8 20 -6 20 3 0 10 -9 16 -20z"/>
<path d="M2233 2615 c-155 -76 -165 -173 -27 -261 59 -38 195 -96 230 -98 12
0 20 -4 17 -8 -2 -5 3 -8 12 -8 9 0 14 4 10 9 -3 5 -1 12 5 16 5 3 10 -3 10
-13 0 -11 7 -23 16 -26 13 -5 14 -3 7 6 -15 19 -34 80 -23 73 5 -3 18 0 29 7
15 9 23 9 35 -1 9 -8 16 -9 16 -4 0 5 -33 22 -72 37 -194 74 -228 94 -228 136
0 34 26 57 104 91 31 13 56 27 56 30 0 5 -109 49 -121 49 -2 0 -37 -16 -76
-35z"/>
<path d="M2460 2500 c0 -106 -3 -101 63 -120 l27 -9 0 99 0 98 -45 15 -45 16
0 -99z"/>
<path d="M2826 2385 c4 -8 8 -15 10 -15 2 0 4 7 4 15 0 8 -4 15 -10 15 -5 0
-7 -7 -4 -15z"/>
<path d="M2254 2216 c-88 -41 -144 -95 -144 -137 0 -36 19 -76 52 -106 27 -26
137 -78 145 -69 4 3 1 6 -6 6 -7 0 -9 4 -6 10 3 5 0 7 -8 4 -8 -3 -14 2 -14
11 0 9 6 14 13 11 8 -3 11 0 8 9 -3 7 3 16 15 20 20 6 20 8 -9 38 -34 36 -39
76 -12 99 9 9 48 33 86 54 l69 38 -39 16 c-69 30 -77 30 -150 -4z m56 -230 c0
-2 -9 -6 -20 -9 -11 -3 -18 -1 -14 4 5 9 34 13 34 5z"/>
<path d="M2460 2092 l0 -108 35 -17 c20 -9 40 -17 45 -17 6 0 10 46 10 111 l0
110 -35 15 c-19 7 -39 14 -45 14 -6 0 -10 -40 -10 -108z"/>
<path d="M2660 1929 c0 -5 -4 -7 -10 -4 -5 3 -17 2 -26 -3 -13 -7 -10 -11 15
-22 18 -7 34 -10 38 -6 3 3 2 6 -4 6 -6 0 -9 9 -6 20 3 11 3 20 -1 20 -3 0 -6
-5 -6 -11z"/>
<path d="M1100 1356 c0 -85 4 -157 9 -160 5 -4 16 -3 25 0 13 5 16 24 16 108
l1 101 52 -82 c28 -46 57 -81 62 -80 6 2 30 38 55 81 l45 77 3 -98 c3 -99 9
-115 43 -106 18 5 19 15 17 157 l-3 151 -29 0 c-26 0 -34 -9 -78 -87 -27 -49
-52 -88 -56 -88 -4 0 -29 37 -56 83 -53 87 -61 97 -88 97 -16 0 -18 -14 -18
-154z"/>
<path d="M1550 1355 l0 -156 108 3 c87 2 107 6 107 18 0 12 -17 16 -82 18
l-83 3 0 44 0 45 70 0 c62 0 70 2 70 19 0 24 -19 31 -86 31 l-54 0 0 40 0 39
83 3 c74 3 82 5 82 23 0 19 -8 20 -107 23 l-108 3 0 -156z"/>
<path d="M1880 1356 l0 -156 86 0 c102 0 143 19 174 81 37 71 19 146 -45 195
-33 25 -47 28 -126 32 l-89 4 0 -156z m165 90 c18 -8 39 -25 46 -37 26 -49 5
-137 -37 -153 -9 -3 -40 -9 -70 -12 l-54 -7 0 112 0 111 40 0 c22 0 56 -6 75
-14z"/>
<path d="M2267 1503 c-4 -3 -7 -73 -7 -154 0 -125 2 -148 16 -153 9 -3 20 -4
25 0 5 3 9 75 9 160 0 143 -1 154 -18 154 -10 0 -22 -3 -25 -7z"/>
<path d="M2447 1504 c-4 -4 -7 -74 -7 -156 l0 -148 25 0 c24 0 24 1 27 102 l3
102 53 -83 c40 -64 55 -81 65 -72 7 5 31 42 53 80 21 39 42 71 47 71 4 0 7
-45 7 -99 0 -70 4 -100 13 -103 33 -13 37 2 37 153 0 129 -2 150 -16 156 -27
10 -45 -9 -97 -95 -26 -45 -51 -82 -55 -82 -4 0 -30 40 -57 88 -48 82 -76 108
-98 86z"/>
<path d="M2994 1492 c-12 -15 -124 -275 -124 -289 0 -2 11 -3 26 -3 19 0 28 8
40 35 l14 35 70 0 c70 0 70 0 87 -34 15 -33 36 -47 59 -39 11 4 -93 270 -117
299 -16 19 -36 17 -55 -4z m49 -94 c8 -24 18 -51 22 -60 6 -16 1 -18 -44 -18
-28 0 -51 2 -51 4 0 8 50 116 54 116 2 0 11 -19 19 -42z"/>
<path d="M3227 1504 c-4 -4 -7 -16 -7 -26 0 -15 8 -18 50 -18 l50 0 0 -129 c0
-105 3 -130 15 -135 40 -15 45 1 45 135 l0 129 51 0 c47 0 50 2 47 23 -3 21
-7 22 -124 25 -66 1 -123 -1 -127 -4z"/>
<path d="M3577 1504 c-4 -4 -7 -74 -7 -156 l0 -148 110 0 c103 0 110 1 110 20
0 17 -8 19 -82 22 l-83 3 0 40 0 40 73 3 c69 3 73 4 70 25 -3 20 -9 22 -76 25
l-73 3 3 37 3 37 83 3 c79 3 83 4 80 25 -3 21 -8 22 -104 25 -55 1 -103 0
-107 -4z"/>
</g>
</svg>
